<svg width="305" height="55" viewBox="0 0 305 55" fill="none" xmlns="http://www.w3.org/2000/svg">
<path d="M0 34.75V32.7188H8V34.25C8 36.75 8.6875 38.6146 10.0625 39.8438C11.4583 41.0521 13.3958 41.6562 15.875 41.6562C18.3125 41.6562 20.1771 41.0729 21.4688 39.9062C22.7812 38.7396 23.4375 37.1771 23.4375 35.2188C23.4375 33.4479 22.7812 32.0208 21.4688 30.9375C20.1771 29.8542 17.6562 28.6979 13.9062 27.4688C9.36458 25.9688 6.02083 24.1667 3.875 22.0625C1.72917 19.9583 0.65625 17.0833 0.65625 13.4375C0.65625 9.625 2 6.57292 4.6875 4.28125C7.375 1.96875 11.0104 0.8125 15.5938 0.8125C20.1146 0.8125 23.75 1.91667 26.5 4.125C29.2708 6.3125 30.6562 9.38542 30.6562 13.3438V14.9062H22.75V13.7812C22.75 11.6771 22.1458 10.0208 20.9375 8.8125C19.75 7.60417 18.0104 7 15.7188 7C13.3021 7 11.5417 7.53125 10.4375 8.59375C9.35417 9.63542 8.8125 11.0417 8.8125 12.8125C8.8125 14.4792 9.47917 15.8125 10.8125 16.8125C12.1458 17.8125 14.7292 18.9375 18.5625 20.1875C23.0208 21.6042 26.3021 23.4167 28.4062 25.625C30.5104 27.8333 31.5625 30.8125 31.5625 34.5625C31.5625 38.6042 30.1354 41.8021 27.2812 44.1562C24.4479 46.5104 20.6667 47.6875 15.9375 47.6875C11.2292 47.6875 7.39583 46.5938 4.4375 44.4062C1.47917 42.1979 0 38.9792 0 34.75ZM35.5625 32.625V31.625C35.5625 27.0625 36.9271 23.4062 39.6562 20.6562C42.3854 17.9062 46.0208 16.5312 50.5625 16.5312C55.0417 16.5312 58.4896 17.8333 60.9062 20.4375C63.3229 23.0417 64.5312 26.6354 64.5312 31.2188V33.7188H40.1562V29.0312H56.5312V28.7188C56.5312 27.0104 56.0417 25.5417 55.0625 24.3125C54.1042 23.0833 52.5833 22.4688 50.5 22.4688C48.2917 22.4688 46.6146 23.2708 45.4688 24.875C44.3438 26.4792 43.7812 28.5 43.7812 30.9375V32.7188C43.7812 35.5104 44.3854 37.7188 45.5938 39.3438C46.8229 40.9688 48.6042 41.7812 50.9375 41.7812C52.5833 41.7812 53.9688 41.4375 55.0938 40.75C56.2188 40.0625 57.1042 39.1771 57.75 38.0938L64.2812 40.6875C63.3438 42.7708 61.7917 44.4688 59.625 45.7812C57.4583 47.0938 54.5938 47.75 51.0312 47.75C46.1146 47.75 42.3021 46.3854 39.5938 43.6562C36.9062 40.9271 35.5625 37.25 35.5625 32.625ZM69.25 47V17.375H77.2812L77.3125 21.375H77.4062C78.2396 19.9167 79.4688 18.7708 81.0938 17.9375C82.7188 17.0833 84.6354 16.6562 86.8438 16.6562C89.8438 16.6562 92.25 17.5 94.0625 19.1875C95.8958 20.875 96.8125 23.6771 96.8125 27.5938V47H88.5938V28.6562C88.5938 26.6146 88.1562 25.1667 87.2812 24.3125C86.4062 23.4375 85.1771 23 83.5938 23C82.2396 23 81.0208 23.3958 79.9375 24.1875C78.875 24.9583 78.0521 25.9896 77.4688 27.2812V47H69.25ZM100.031 23.4688V17.375H119.469V23.4688H100.031ZM104.844 38.2188V19.1562L105 18.6562V7.78125H112.969V36.7812C112.969 38.7812 113.25 40.0833 113.812 40.6875C114.375 41.2917 115.25 41.5938 116.438 41.5938C116.979 41.5938 117.49 41.5521 117.969 41.4688C118.448 41.3854 118.917 41.25 119.375 41.0625V46.9375C118.854 47.125 118.104 47.2917 117.125 47.4375C116.146 47.6042 114.969 47.6875 113.594 47.6875C110.823 47.6875 108.667 46.9583 107.125 45.5C105.604 44.0417 104.844 41.6146 104.844 38.2188ZM123.812 47V17.375H132.156V47H123.812ZM123.188 7.21875C123.188 5.96875 123.604 4.91667 124.438 4.0625C125.271 3.20833 126.469 2.78125 128.031 2.78125C129.573 2.78125 130.75 3.20833 131.562 4.0625C132.375 4.89583 132.781 5.94792 132.781 7.21875C132.781 8.44792 132.365 9.5 131.531 10.375C130.698 11.25 129.51 11.6875 127.969 11.6875C126.427 11.6875 125.24 11.25 124.406 10.375C123.594 9.5 123.188 8.44792 123.188 7.21875ZM137.188 32.625V31.625C137.188 27.0625 138.552 23.4062 141.281 20.6562C144.01 17.9062 147.646 16.5312 152.188 16.5312C156.667 16.5312 160.115 17.8333 162.531 20.4375C164.948 23.0417 166.156 26.6354 166.156 31.2188V33.7188H141.781V29.0312H158.156V28.7188C158.156 27.0104 157.667 25.5417 156.688 24.3125C155.729 23.0833 154.208 22.4688 152.125 22.4688C149.917 22.4688 148.24 23.2708 147.094 24.875C145.969 26.4792 145.406 28.5 145.406 30.9375V32.7188C145.406 35.5104 146.01 37.7188 147.219 39.3438C148.448 40.9688 150.229 41.7812 152.562 41.7812C154.208 41.7812 155.594 41.4375 156.719 40.75C157.844 40.0625 158.729 39.1771 159.375 38.0938L165.906 40.6875C164.969 42.7708 163.417 44.4688 161.25 45.7812C159.083 47.0938 156.219 47.75 152.656 47.75C147.74 47.75 143.927 46.3854 141.219 43.6562C138.531 40.9271 137.188 37.25 137.188 32.625ZM170.875 47V17.375H178.906L178.938 21.375H179.031C179.865 19.9167 181.094 18.7708 182.719 17.9375C184.344 17.0833 186.26 16.6562 188.469 16.6562C191.469 16.6562 193.875 17.5 195.688 19.1875C197.521 20.875 198.438 23.6771 198.438 27.5938V47H190.219V28.6562C190.219 26.6146 189.781 25.1667 188.906 24.3125C188.031 23.4375 186.802 23 185.219 23C183.865 23 182.646 23.3958 181.562 24.1875C180.5 24.9583 179.677 25.9896 179.094 27.2812V47H170.875ZM203.062 32.625V31.625C203.062 26.9375 204.406 23.25 207.094 20.5625C209.802 17.875 213.438 16.5312 218 16.5312C222.5 16.5312 225.927 17.5625 228.281 19.625C230.656 21.6875 231.896 24.4583 232 27.9375L232.031 28.5H224.031V28.125C224.031 26.4375 223.531 25.1042 222.531 24.125C221.552 23.125 220.115 22.625 218.219 22.625C216.031 22.625 214.344 23.3854 213.156 24.9062C211.99 26.4062 211.406 28.5625 211.406 31.375V32.875C211.406 35.5625 211.979 37.7188 213.125 39.3438C214.271 40.9479 215.958 41.75 218.188 41.75C220.167 41.75 221.635 41.25 222.594 40.25C223.573 39.2292 224.073 37.875 224.094 36.1875V35.7812H232.062V36.3438C232.021 39.7812 230.792 42.5417 228.375 44.625C225.958 46.7083 222.521 47.75 218.062 47.75C213.5 47.75 209.854 46.3958 207.125 43.6875C204.417 40.9792 203.062 37.2917 203.062 32.625ZM235.062 32.625V31.625C235.062 27.0625 236.427 23.4062 239.156 20.6562C241.885 17.9062 245.521 16.5312 250.062 16.5312C254.542 16.5312 257.99 17.8333 260.406 20.4375C262.823 23.0417 264.031 26.6354 264.031 31.2188V33.7188H239.656V29.0312H256.031V28.7188C256.031 27.0104 255.542 25.5417 254.562 24.3125C253.604 23.0833 252.083 22.4688 250 22.4688C247.792 22.4688 246.115 23.2708 244.969 24.875C243.844 26.4792 243.281 28.5 243.281 30.9375V32.7188C243.281 35.5104 243.885 37.7188 245.094 39.3438C246.323 40.9688 248.104 41.7812 250.438 41.7812C252.083 41.7812 253.469 41.4375 254.594 40.75C255.719 40.0625 256.604 39.1771 257.25 38.0938L263.781 40.6875C262.844 42.7708 261.292 44.4688 259.125 45.7812C256.958 47.0938 254.094 47.75 250.531 47.75C245.615 47.75 241.802 46.3854 239.094 43.6562C236.406 40.9271 235.062 37.25 235.062 32.625ZM267.969 25.5312V22.9688C267.969 15.4062 269.667 9.82292 273.062 6.21875C276.458 2.61458 280.833 0.8125 286.188 0.8125C291.583 0.8125 295.979 2.61458 299.375 6.21875C302.771 9.82292 304.469 15.4062 304.469 22.9688V25.5312C304.469 32.9688 302.771 38.5208 299.375 42.1875C295.979 45.8542 291.583 47.6875 286.188 47.6875C280.833 47.6875 276.458 45.8542 273.062 42.1875C269.667 38.5208 267.969 32.9688 267.969 25.5312ZM276.781 27.2812C276.781 32.2188 277.625 35.8333 279.312 38.125C281 40.3958 283.292 41.5312 286.188 41.5312C289.104 41.5312 291.406 40.3958 293.094 38.125C294.781 35.8333 295.625 32.2188 295.625 27.2812V21.25C295.625 16.2292 294.781 12.6146 293.094 10.4062C291.406 8.17708 289.104 7.0625 286.188 7.0625C283.292 7.0625 281 8.17708 279.312 10.4062C277.625 12.6146 276.781 16.2292 276.781 21.25V27.2812ZM299.656 54.7188L288 43.625L292.719 38.5312L304.438 49.5312L299.656 54.7188Z" fill="url(#paint0_linear_4_4)"/>
<defs>
<linearGradient id="paint0_linear_4_4" x1="-2" y1="25" x2="312" y2="25" gradientUnits="userSpaceOnUse">
<stop stop-color="#246EF8"/>
<stop offset="1" stop-color="#DC15F2"/>
</linearGradient>
</defs>
</svg>
