<svg width="37" height="55" viewBox="0 0 37 55" fill="none" xmlns="http://www.w3.org/2000/svg">
<path d="M0.34375 25.5312V22.9688C0.34375 15.4062 2.04167 9.82292 5.4375 6.21875C8.83333 2.61458 13.2083 0.8125 18.5625 0.8125C23.9583 0.8125 28.3542 2.61458 31.75 6.21875C35.1458 9.82292 36.8438 15.4062 36.8438 22.9688V25.5312C36.8438 32.9688 35.1458 38.5208 31.75 42.1875C28.3542 45.8542 23.9583 47.6875 18.5625 47.6875C13.2083 47.6875 8.83333 45.8542 5.4375 42.1875C2.04167 38.5208 0.34375 32.9688 0.34375 25.5312ZM9.15625 27.2812C9.15625 32.2188 10 35.8333 11.6875 38.125C13.375 40.3958 15.6667 41.5312 18.5625 41.5312C21.4792 41.5312 23.7812 40.3958 25.4688 38.125C27.1562 35.8333 28 32.2188 28 27.2812V21.25C28 16.2292 27.1562 12.6146 25.4688 10.4062C23.7812 8.17708 21.4792 7.0625 18.5625 7.0625C15.6667 7.0625 13.375 8.17708 11.6875 10.4062C10 12.6146 9.15625 16.2292 9.15625 21.25V27.2812ZM32.0312 54.7188L20.375 43.625L25.0938 38.5312L36.8125 49.5312L32.0312 54.7188Z" fill="url(#paint0_linear_5_2)"/>
<defs>
<linearGradient id="paint0_linear_5_2" x1="-2" y1="25" x2="42" y2="25" gradientUnits="userSpaceOnUse">
<stop stop-color="#246EF8"/>
<stop offset="1" stop-color="#DC15F2"/>
</linearGradient>
</defs>
</svg>
